<svg width="13" height="16" viewBox="0 0 13 16" fill="none" xmlns="http://www.w3.org/2000/svg">
  <path fill-rule="evenodd" clip-rule="evenodd" d="M0.980326 8.66414e-06C0.986977 1.28365e-05 0.993545 1.69492e-05 1.00002 1.69492e-05L10.6719 1.5161e-05C11.1437 -1.69659e-05 11.5518 -4.46811e-05 11.8558 0.0431671C12.1507 0.085069 12.562 0.195047 12.7377 0.610837C12.9134 1.02663 12.7055 1.39824 12.53 1.63886C12.349 1.88699 12.0645 2.17956 11.7357 2.51778L9.50561 4.81154C9.17567 5.15092 8.96356 5.37056 8.82788 5.55313C8.70083 5.72408 8.68639 5.80401 8.68639 5.85716C8.68639 5.91031 8.70083 5.99024 8.82788 6.16119C8.96356 6.34376 9.17567 6.5634 9.50561 6.90278L11.7356 9.19652C12.0645 9.53474 12.349 9.82732 12.53 10.0755C12.7055 10.3161 12.9134 10.6877 12.7377 11.1035C12.562 11.5193 12.1507 11.6292 11.8558 11.6712C11.5518 11.7144 11.1437 11.7143 10.6719 11.7143L1.00002 11.7143V15.5C1.00002 15.7762 0.776159 16 0.500017 16C0.223875 16 1.69492e-05 15.7762 1.69492e-05 15.5V1.00002C1.69492e-05 0.993544 1.28365e-05 0.986977 8.66414e-06 0.980325C-5.4338e-05 0.880388 -0.000129201 0.761403 0.0136285 0.659075C0.0302357 0.535552 0.0746908 0.364683 0.219687 0.219687C0.364683 0.0746907 0.535553 0.0302357 0.659075 0.0136285C0.761404 -0.000129201 0.880388 -5.4338e-05 0.980326 8.66414e-06Z" fill="white" />
</svg>